<svg width="400" height="300" viewBox="0 0 400 300" xmlns="http://www.w3.org/2000/svg">
  <defs>
    <linearGradient id="bgGradient" x1="0%" y1="0%" x2="100%" y2="100%">
      <stop offset="0%" style="stop-color:#0a0a0a;stop-opacity:1" />
      <stop offset="100%" style="stop-color:#1a1a1a;stop-opacity:1" />
    </linearGradient>
    <linearGradient id="shieldGradient" x1="0%" y1="0%" x2="100%" y2="100%">
      <stop offset="0%" style="stop-color:#00ff00;stop-opacity:0.8" />
      <stop offset="100%" style="stop-color:#008800;stop-opacity:1" />
    </linearGradient>
    <filter id="glow">
      <feGaussianBlur stdDeviation="3" result="coloredBlur"/>
      <feMerge> 
        <feMergeNode in="coloredBlur"/>
        <feMergeNode in="SourceGraphic"/>
      </feMerge>
    </filter>
  </defs>
  
  <!-- Background -->
  <rect width="400" height="300" fill="url(#bgGradient)"/>
  
  <!-- Grid pattern -->
  <pattern id="grid" width="20" height="20" patternUnits="userSpaceOnUse">
    <path d="M 20 0 L 0 0 0 20" fill="none" stroke="#00aa00" stroke-width="0.5" opacity="0.3"/>
  </pattern>
  <rect width="400" height="300" fill="url(#grid)"/>
  
  <!-- Shield -->
  <path d="M200 50 L160 70 L160 150 Q160 180 200 200 Q240 180 240 150 L240 70 Z" 
        fill="url(#shieldGradient)" 
        filter="url(#glow)" 
        stroke="#00ff00" 
        stroke-width="2"/>
  
  <!-- Lock icon in shield -->
  <rect x="185" y="110" width="30" height="25" rx="3" fill="#0a0a0a" stroke="#00ff00" stroke-width="1"/>
  <circle cx="200" cy="105" r="8" fill="none" stroke="#00ff00" stroke-width="2"/>
  <line x1="200" y1="120" x2="200" y2="125" stroke="#00ff00" stroke-width="2"/>
  
  <!-- Binary rain effect -->
  <g opacity="0.6">
    <text x="50" y="50" fill="#00aa00" font-family="monospace" font-size="12">01001000</text>
    <text x="300" y="80" fill="#00aa00" font-family="monospace" font-size="10">11010110</text>
    <text x="80" y="200" fill="#00aa00" font-family="monospace" font-size="8">10110101</text>
    <text x="320" y="180" fill="#00aa00" font-family="monospace" font-size="12">01110011</text>
    <text x="30" y="120" fill="#00aa00" font-family="monospace" font-size="10">11001010</text>
  </g>
  
  <!-- Network nodes -->
  <g stroke="#00aa00" stroke-width="1" fill="#00aa00" opacity="0.7">
    <circle cx="80" cy="100" r="3"/>
    <circle cx="320" cy="120" r="3"/>
    <circle cx="150" cy="250" r="3"/>
    <circle cx="350" cy="50" r="3"/>
    
    <!-- Connections -->
    <line x1="80" y1="100" x2="160" y2="110" stroke-width="1" opacity="0.5"/>
    <line x1="240" y1="110" x2="320" y2="120" stroke-width="1" opacity="0.5"/>
    <line x1="200" y1="200" x2="150" y2="250" stroke-width="1" opacity="0.5"/>
  </g>
  
  <!-- Title -->
  <text x="200" y="280" text-anchor="middle" fill="#00aa00" font-family="monospace" font-size="16" font-weight="bold">
    CYBERSECURITY
  </text>
</svg> 